# Tiled2Unity generated file. Do not modify by hand.
# Wavefront file for 'map3_mesh_0004.obj'

# Vertices (Count = 488)
v -16 -16 0
v -32 -16 0
v -32 0 0
v -16 0 0
v -32 -16 0
v -48 -16 0
v -48 0 0
v -32 0 0
v -48 -16 0
v -64 -16 0
v -64 0 0
v -48 0 0
v -64 -16 0
v -80 -16 0
v -80 0 0
v -64 0 0
v -80 -16 0
v -96 -16 0
v -96 0 0
v -80 0 0
v -96 -16 0
v -112 -16 0
v -112 0 0
v -96 0 0
v -112 -16 0
v -128 -16 0
v -128 0 0
v -112 0 0
v -128 -16 0
v -144 -16 0
v -144 0 0
v -128 0 0
v -144 -16 0
v -160 -16 0
v -160 0 0
v -144 0 0
v -160 -16 0
v -176 -16 0
v -176 0 0
v -160 0 0
v -176 -16 0
v -192 -16 0
v -192 0 0
v -176 0 0
v -192 -16 0
v -208 -16 0
v -208 0 0
v -192 0 0
v -208 -16 0
v -224 -16 0
v -224 0 0
v -208 0 0
v -224 -16 0
v -240 -16 0
v -240 0 0
v -224 0 0
v -240 -16 0
v -256 -16 0
v -256 0 0
v -240 0 0
v -256 -16 0
v -272 -16 0
v -272 0 0
v -256 0 0
v -272 -16 0
v -288 -16 0
v -288 0 0
v -272 0 0
v -288 -16 0
v -304 -16 0
v -304 0 0
v -288 0 0
v -304 -16 0
v -320 -16 0
v -320 0 0
v -304 0 0
v -320 -16 0
v -336 -16 0
v -336 0 0
v -320 0 0
v -336 -16 0
v -352 -16 0
v -352 0 0
v -336 0 0
v -352 -16 0
v -368 -16 0
v -368 0 0
v -352 0 0
v -368 -16 0
v -384 -16 0
v -384 0 0
v -368 0 0
v -384 -16 0
v -400 -16 0
v -400 0 0
v -384 0 0
v -400 -16 0
v -416 -16 0
v -416 0 0
v -400 0 0
v -416 -16 0
v -432 -16 0
v -432 0 0
v -416 0 0
v -432 -16 0
v -448 -16 0
v -448 0 0
v -432 0 0
v -448 -16 0
v -464 -16 0
v -464 0 0
v -448 0 0
v -464 -16 0
v -480 -16 0
v -480 0 0
v -464 0 0
v -480 -16 0
v -496 -16 0
v -496 0 0
v -480 0 0
v -496 -16 0
v -512 -16 0
v -512 0 0
v -496 0 0
v -512 -16 0
v -528 -16 0
v -528 0 0
v -512 0 0
v -528 -16 0
v -544 -16 0
v -544 0 0
v -528 0 0
v -544 -16 0
v -560 -16 0
v -560 0 0
v -544 0 0
v -560 -16 0
v -576 -16 0
v -576 0 0
v -560 0 0
v -576 -16 0
v -592 -16 0
v -592 0 0
v -576 0 0
v -592 -16 0
v -608 -16 0
v -608 0 0
v -592 0 0
v -608 -16 0
v -624 -16 0
v -624 0 0
v -608 0 0
v -624 -16 0
v -640 -16 0
v -640 0 0
v -624 0 0
v -640 -16 0
v -656 -16 0
v -656 0 0
v -640 0 0
v -656 -16 0
v -672 -16 0
v -672 0 0
v -656 0 0
v -672 -16 0
v -688 -16 0
v -688 0 0
v -672 0 0
v -688 -16 0
v -704 -16 0
v -704 0 0
v -688 0 0
v -704 -16 0
v -720 -16 0
v -720 0 0
v -704 0 0
v -720 -16 0
v -736 -16 0
v -736 0 0
v -720 0 0
v -736 -16 0
v -752 -16 0
v -752 0 0
v -736 0 0
v -752 -16 0
v -768 -16 0
v -768 0 0
v -752 0 0
v -768 -16 0
v -784 -16 0
v -784 0 0
v -768 0 0
v -784 -16 0
v -800 -16 0
v -800 0 0
v -784 0 0
v -800 -16 0
v -816 -16 0
v -816 0 0
v -800 0 0
v -816 -16 0
v -832 -16 0
v -832 0 0
v -816 0 0
v -832 -16 0
v -848 -16 0
v -848 0 0
v -832 0 0
v -848 -16 0
v -864 -16 0
v -864 0 0
v -848 0 0
v -864 -16 0
v -880 -16 0
v -880 0 0
v -864 0 0
v -880 -16 0
v -896 -16 0
v -896 0 0
v -880 0 0
v -896 -16 0
v -912 -16 0
v -912 0 0
v -896 0 0
v -912 -16 0
v -928 -16 0
v -928 0 0
v -912 0 0
v -928 -16 0
v -944 -16 0
v -944 0 0
v -928 0 0
v -944 -16 0
v -960 -16 0
v -960 0 0
v -944 0 0
v -960 -16 0
v -976 -16 0
v -976 0 0
v -960 0 0
v -976 -16 0
v -992 -16 0
v -992 0 0
v -976 0 0
v -992 -16 0
v -1008 -16 0
v -1008 0 0
v -992 0 0
v -1008 -16 0
v -1024 -16 0
v -1024 0 0
v -1008 0 0
v -1024 -16 0
v -1040 -16 0
v -1040 0 0
v -1024 0 0
v -1040 -16 0
v -1056 -16 0
v -1056 0 0
v -1040 0 0
v -1056 -16 0
v -1072 -16 0
v -1072 0 0
v -1056 0 0
v -1072 -16 0
v -1088 -16 0
v -1088 0 0
v -1072 0 0
v -1088 -16 0
v -1104 -16 0
v -1104 0 0
v -1088 0 0
v -1104 -16 0
v -1120 -16 0
v -1120 0 0
v -1104 0 0
v -1120 -16 0
v -1136 -16 0
v -1136 0 0
v -1120 0 0
v -1136 -16 0
v -1152 -16 0
v -1152 0 0
v -1136 0 0
v -1152 -16 0
v -1168 -16 0
v -1168 0 0
v -1152 0 0
v -1168 -16 0
v -1184 -16 0
v -1184 0 0
v -1168 0 0
v -1184 -16 0
v -1200 -16 0
v -1200 0 0
v -1184 0 0
v -1200 -16 0
v -1216 -16 0
v -1216 0 0
v -1200 0 0
v -1216 -16 0
v -1232 -16 0
v -1232 0 0
v -1216 0 0
v -1232 -16 0
v -1248 -16 0
v -1248 0 0
v -1232 0 0
v -1248 -16 0
v -1264 -16 0
v -1264 0 0
v -1248 0 0
v -1264 -16 0
v -1280 -16 0
v -1280 0 0
v -1264 0 0
v -1280 -16 0
v -1296 -16 0
v -1296 0 0
v -1280 0 0
v -1296 -16 0
v -1312 -16 0
v -1312 0 0
v -1296 0 0
v -1312 -16 0
v -1328 -16 0
v -1328 0 0
v -1312 0 0
v -1328 -16 0
v -1344 -16 0
v -1344 0 0
v -1328 0 0
v -1344 -16 0
v -1360 -16 0
v -1360 0 0
v -1344 0 0
v -1360 -16 0
v -1376 -16 0
v -1376 0 0
v -1360 0 0
v -1376 -16 0
v -1392 -16 0
v -1392 0 0
v -1376 0 0
v -1392 -16 0
v -1408 -16 0
v -1408 0 0
v -1392 0 0
v -1408 -16 0
v -1424 -16 0
v -1424 0 0
v -1408 0 0
v -1424 -16 0
v -1440 -16 0
v -1440 0 0
v -1424 0 0
v -1440 -16 0
v -1456 -16 0
v -1456 0 0
v -1440 0 0
v -1456 -16 0
v -1472 -16 0
v -1472 0 0
v -1456 0 0
v -1472 -16 0
v -1488 -16 0
v -1488 0 0
v -1472 0 0
v -1488 -16 0
v -1504 -16 0
v -1504 0 0
v -1488 0 0
v -1504 -16 0
v -1520 -16 0
v -1520 0 0
v -1504 0 0
v -1520 -16 0
v -1536 -16 0
v -1536 0 0
v -1520 0 0
v -1536 -16 0
v -1552 -16 0
v -1552 0 0
v -1536 0 0
v -1552 -16 0
v -1568 -16 0
v -1568 0 0
v -1552 0 0
v -1568 -16 0
v -1584 -16 0
v -1584 0 0
v -1568 0 0
v -1584 -16 0
v -1600 -16 0
v -1600 0 0
v -1584 0 0
v -1600 -16 0
v -1616 -16 0
v -1616 0 0
v -1600 0 0
v -1616 -16 0
v -1632 -16 0
v -1632 0 0
v -1616 0 0
v -1648 -16 0
v -1664 -16 0
v -1664 0 0
v -1648 0 0
v -1664 -16 0
v -1680 -16 0
v -1680 0 0
v -1664 0 0
v -1680 -16 0
v -1696 -16 0
v -1696 0 0
v -1680 0 0
v -1696 -16 0
v -1712 -16 0
v -1712 0 0
v -1696 0 0
v -1712 -16 0
v -1728 -16 0
v -1728 0 0
v -1712 0 0
v -1728 -16 0
v -1744 -16 0
v -1744 0 0
v -1728 0 0
v -1744 -16 0
v -1760 -16 0
v -1760 0 0
v -1744 0 0
v -1760 -16 0
v -1776 -16 0
v -1776 0 0
v -1760 0 0
v -1776 -16 0
v -1792 -16 0
v -1792 0 0
v -1776 0 0
v -1792 -16 0
v -1808 -16 0
v -1808 0 0
v -1792 0 0
v -1808 -16 0
v -1824 -16 0
v -1824 0 0
v -1808 0 0
v -1824 -16 0
v -1840 -16 0
v -1840 0 0
v -1824 0 0
v -1840 -16 0
v -1856 -16 0
v -1856 0 0
v -1840 0 0
v -1856 -16 0
v -1872 -16 0
v -1872 0 0
v -1856 0 0
v -1872 -16 0
v -1888 -16 0
v -1888 0 0
v -1872 0 0
v -1888 -16 0
v -1904 -16 0
v -1904 0 0
v -1888 0 0
v -1904 -16 0
v -1920 -16 0
v -1920 0 0
v -1904 0 0
v -1120 -128 0
v -1136 -128 0
v -1136 -112 0
v -1120 -112 0
v -1136 -128 0
v -1152 -128 0
v -1152 -112 0
v -1136 -112 0
v -352 -352 0
v -368 -352 0
v -368 -336 0
v -352 -336 0
v -368 -352 0
v -384 -352 0
v -384 -336 0
v -368 -336 0

# Texture cooridinates (Count = 38)
vt 0 0.9375
vt 0.0625 0.9375
vt 0.0625 1
vt 0 1
vt 0.125 0.9375
vt 0.125 1
vt 0.1875 0.9375
vt 0.1875 1
vt 0.25 0.9375
vt 0.25 1
vt 0.3125 0.9375
vt 0.3125 1
vt 0.375 0.9375
vt 0.375 1
vt 0.4375 0.9375
vt 0.4375 1
vt 0.5 0.9375
vt 0.5 1
vt 0.5625 0.9375
vt 0.5625 1
vt 0.625 0.9375
vt 0.625 1
vt 0.6875 0.9375
vt 0.6875 1
vt 0.75 0.9375
vt 0.75 1
vt 0.8125 0.9375
vt 0.8125 1
vt 0.875 0.9375
vt 0.875 1
vt 0.9375 0.9375
vt 0.9375 1
vt 1 0.9375
vt 1 1
vt 0.4375 0.5625
vt 0.375 0.5625
vt 0.375 0.625
vt 0.4375 0.625

# Normal
vn 0 0 -1

# Mesh description
g map3_mesh_0004

# Faces
f 1/1/1 2/2/1 3/3/1 4/4/1
f 5/2/1 6/5/1 7/6/1 8/3/1
f 9/5/1 10/7/1 11/8/1 12/6/1
f 13/7/1 14/9/1 15/10/1 16/8/1
f 17/9/1 18/11/1 19/12/1 20/10/1
f 21/11/1 22/13/1 23/14/1 24/12/1
f 25/13/1 26/15/1 27/16/1 28/14/1
f 29/15/1 30/17/1 31/18/1 32/16/1
f 33/17/1 34/19/1 35/20/1 36/18/1
f 37/19/1 38/21/1 39/22/1 40/20/1
f 41/21/1 42/23/1 43/24/1 44/22/1
f 45/23/1 46/25/1 47/26/1 48/24/1
f 49/25/1 50/27/1 51/28/1 52/26/1
f 53/27/1 54/29/1 55/30/1 56/28/1
f 57/1/1 58/2/1 59/3/1 60/4/1
f 61/2/1 62/5/1 63/6/1 64/3/1
f 65/5/1 66/7/1 67/8/1 68/6/1
f 69/7/1 70/9/1 71/10/1 72/8/1
f 73/9/1 74/11/1 75/12/1 76/10/1
f 77/11/1 78/13/1 79/14/1 80/12/1
f 81/13/1 82/15/1 83/16/1 84/14/1
f 85/15/1 86/17/1 87/18/1 88/16/1
f 89/17/1 90/19/1 91/20/1 92/18/1
f 93/19/1 94/21/1 95/22/1 96/20/1
f 97/21/1 98/23/1 99/24/1 100/22/1
f 101/1/1 102/2/1 103/3/1 104/4/1
f 105/2/1 106/5/1 107/6/1 108/3/1
f 109/5/1 110/7/1 111/8/1 112/6/1
f 113/7/1 114/9/1 115/10/1 116/8/1
f 117/9/1 118/11/1 119/12/1 120/10/1
f 121/11/1 122/13/1 123/14/1 124/12/1
f 125/13/1 126/15/1 127/16/1 128/14/1
f 129/15/1 130/17/1 131/18/1 132/16/1
f 133/17/1 134/19/1 135/20/1 136/18/1
f 137/19/1 138/21/1 139/22/1 140/20/1
f 141/21/1 142/23/1 143/24/1 144/22/1
f 145/23/1 146/25/1 147/26/1 148/24/1
f 149/25/1 150/27/1 151/28/1 152/26/1
f 153/27/1 154/29/1 155/30/1 156/28/1
f 157/29/1 158/31/1 159/32/1 160/30/1
f 161/31/1 162/33/1 163/34/1 164/32/1
f 165/1/1 166/2/1 167/3/1 168/4/1
f 169/2/1 170/5/1 171/6/1 172/3/1
f 173/5/1 174/7/1 175/8/1 176/6/1
f 177/7/1 178/9/1 179/10/1 180/8/1
f 181/9/1 182/11/1 183/12/1 184/10/1
f 185/11/1 186/13/1 187/14/1 188/12/1
f 189/13/1 190/15/1 191/16/1 192/14/1
f 193/15/1 194/17/1 195/18/1 196/16/1
f 197/17/1 198/19/1 199/20/1 200/18/1
f 201/19/1 202/21/1 203/22/1 204/20/1
f 205/21/1 206/23/1 207/24/1 208/22/1
f 209/23/1 210/25/1 211/26/1 212/24/1
f 213/25/1 214/27/1 215/28/1 216/26/1
f 217/27/1 218/29/1 219/30/1 220/28/1
f 221/29/1 222/31/1 223/32/1 224/30/1
f 225/1/1 226/2/1 227/3/1 228/4/1
f 229/2/1 230/5/1 231/6/1 232/3/1
f 233/5/1 234/7/1 235/8/1 236/6/1
f 237/7/1 238/9/1 239/10/1 240/8/1
f 241/9/1 242/11/1 243/12/1 244/10/1
f 245/11/1 246/13/1 247/14/1 248/12/1
f 249/13/1 250/15/1 251/16/1 252/14/1
f 253/15/1 254/17/1 255/18/1 256/16/1
f 257/17/1 258/19/1 259/20/1 260/18/1
f 261/19/1 262/21/1 263/22/1 264/20/1
f 265/21/1 266/23/1 267/24/1 268/22/1
f 269/23/1 270/25/1 271/26/1 272/24/1
f 273/25/1 274/27/1 275/28/1 276/26/1
f 277/27/1 278/29/1 279/30/1 280/28/1
f 281/1/1 282/2/1 283/3/1 284/4/1
f 285/2/1 286/5/1 287/6/1 288/3/1
f 289/5/1 290/7/1 291/8/1 292/6/1
f 293/7/1 294/9/1 295/10/1 296/8/1
f 297/9/1 298/11/1 299/12/1 300/10/1
f 301/11/1 302/13/1 303/14/1 304/12/1
f 305/13/1 306/15/1 307/16/1 308/14/1
f 309/15/1 310/17/1 311/18/1 312/16/1
f 313/17/1 314/19/1 315/20/1 316/18/1
f 317/19/1 318/21/1 319/22/1 320/20/1
f 321/21/1 322/23/1 323/24/1 324/22/1
f 325/23/1 326/25/1 327/26/1 328/24/1
f 329/25/1 330/27/1 331/28/1 332/26/1
f 333/27/1 334/29/1 335/30/1 336/28/1
f 337/29/1 338/31/1 339/32/1 340/30/1
f 341/1/1 342/2/1 343/3/1 344/4/1
f 345/2/1 346/5/1 347/6/1 348/3/1
f 349/5/1 350/7/1 351/8/1 352/6/1
f 353/7/1 354/9/1 355/10/1 356/8/1
f 357/9/1 358/11/1 359/12/1 360/10/1
f 361/11/1 362/13/1 363/14/1 364/12/1
f 365/13/1 366/15/1 367/16/1 368/14/1
f 369/15/1 370/17/1 371/18/1 372/16/1
f 373/17/1 374/19/1 375/20/1 376/18/1
f 377/19/1 378/21/1 379/22/1 380/20/1
f 381/21/1 382/23/1 383/24/1 384/22/1
f 385/23/1 386/25/1 387/26/1 388/24/1
f 389/25/1 390/27/1 391/28/1 392/26/1
f 393/27/1 394/29/1 395/30/1 396/28/1
f 397/29/1 398/31/1 399/32/1 400/30/1
f 401/31/1 402/33/1 403/34/1 404/32/1
f 405/1/1 406/2/1 407/3/1 408/4/1
f 409/1/1 410/2/1 411/3/1 412/4/1
f 413/2/1 414/5/1 415/6/1 416/3/1
f 417/5/1 418/7/1 419/8/1 420/6/1
f 421/7/1 422/9/1 423/10/1 424/8/1
f 425/9/1 426/11/1 427/12/1 428/10/1
f 429/11/1 430/13/1 431/14/1 432/12/1
f 433/13/1 434/15/1 435/16/1 436/14/1
f 437/15/1 438/17/1 439/18/1 440/16/1
f 441/17/1 442/19/1 443/20/1 444/18/1
f 445/19/1 446/21/1 447/22/1 448/20/1
f 449/21/1 450/23/1 451/24/1 452/22/1
f 453/23/1 454/25/1 455/26/1 456/24/1
f 457/25/1 458/27/1 459/28/1 460/26/1
f 461/27/1 462/29/1 463/30/1 464/28/1
f 465/29/1 466/31/1 467/32/1 468/30/1
f 469/31/1 470/33/1 471/34/1 472/32/1
f 473/35/1 474/36/1 475/37/1 476/38/1
f 477/35/1 478/36/1 479/37/1 480/38/1
f 481/36/1 482/35/1 483/38/1 484/37/1
f 485/36/1 486/35/1 487/38/1 488/37/1

