# Tiled2Unity generated file. Do not modify by hand.
# Wavefront file for 'map2_mesh_0004.obj'

# Vertices (Count = 592)
v -1040 -208 0
v -1056 -208 0
v -1056 -192 0
v -1040 -192 0
v -1056 -208 0
v -1072 -208 0
v -1072 -192 0
v -1056 -192 0
v -1072 -208 0
v -1088 -208 0
v -1088 -192 0
v -1072 -192 0
v -1088 -208 0
v -1104 -208 0
v -1104 -192 0
v -1088 -192 0
v -1104 -208 0
v -1120 -208 0
v -1120 -192 0
v -1104 -192 0
v -1184 -208 0
v -1200 -208 0
v -1200 -192 0
v -1184 -192 0
v -1200 -208 0
v -1216 -208 0
v -1216 -192 0
v -1200 -192 0
v -1216 -208 0
v -1232 -208 0
v -1232 -192 0
v -1216 -192 0
v -1232 -208 0
v -1248 -208 0
v -1248 -192 0
v -1232 -192 0
v -1248 -208 0
v -1264 -208 0
v -1264 -192 0
v -1248 -192 0
v -1328 -208 0
v -1344 -208 0
v -1344 -192 0
v -1328 -192 0
v -1344 -208 0
v -1360 -208 0
v -1360 -192 0
v -1344 -192 0
v -1360 -208 0
v -1376 -208 0
v -1376 -192 0
v -1360 -192 0
v -1376 -208 0
v -1392 -208 0
v -1392 -192 0
v -1376 -192 0
v -1392 -208 0
v -1408 -208 0
v -1408 -192 0
v -1392 -192 0
v -1472 -208 0
v -1488 -208 0
v -1488 -192 0
v -1472 -192 0
v -1488 -208 0
v -1504 -208 0
v -1504 -192 0
v -1488 -192 0
v -1504 -208 0
v -1520 -208 0
v -1520 -192 0
v -1504 -192 0
v -1520 -208 0
v -1536 -208 0
v -1536 -192 0
v -1520 -192 0
v -1536 -208 0
v -1552 -208 0
v -1552 -192 0
v -1536 -192 0
v -1040 -224 0
v -1056 -224 0
v -1056 -208 0
v -1040 -208 0
v -1056 -224 0
v -1072 -224 0
v -1072 -208 0
v -1056 -208 0
v -1072 -224 0
v -1088 -224 0
v -1088 -208 0
v -1072 -208 0
v -1088 -224 0
v -1104 -224 0
v -1104 -208 0
v -1088 -208 0
v -1184 -224 0
v -1200 -224 0
v -1200 -208 0
v -1184 -208 0
v -1200 -224 0
v -1216 -224 0
v -1216 -208 0
v -1200 -208 0
v -1216 -224 0
v -1232 -224 0
v -1232 -208 0
v -1216 -208 0
v -1232 -224 0
v -1248 -224 0
v -1248 -208 0
v -1232 -208 0
v -1248 -224 0
v -1264 -224 0
v -1264 -208 0
v -1248 -208 0
v -1328 -224 0
v -1344 -224 0
v -1344 -208 0
v -1328 -208 0
v -1344 -224 0
v -1360 -224 0
v -1360 -208 0
v -1344 -208 0
v -1360 -224 0
v -1376 -224 0
v -1376 -208 0
v -1360 -208 0
v -1376 -224 0
v -1392 -224 0
v -1392 -208 0
v -1376 -208 0
v -1392 -224 0
v -1408 -224 0
v -1408 -208 0
v -1392 -208 0
v -1472 -224 0
v -1488 -224 0
v -1488 -208 0
v -1472 -208 0
v -1488 -224 0
v -1504 -224 0
v -1504 -208 0
v -1488 -208 0
v -1504 -224 0
v -1520 -224 0
v -1520 -208 0
v -1504 -208 0
v -1520 -224 0
v -1536 -224 0
v -1536 -208 0
v -1520 -208 0
v -1536 -224 0
v -1552 -224 0
v -1552 -208 0
v -1536 -208 0
v -1616 -224 0
v -1632 -224 0
v -1632 -208 0
v -1616 -208 0
v -1040 -240 0
v -1056 -240 0
v -1056 -224 0
v -1040 -224 0
v -1056 -240 0
v -1072 -240 0
v -1072 -224 0
v -1056 -224 0
v -1072 -240 0
v -1088 -240 0
v -1088 -224 0
v -1072 -224 0
v -1088 -240 0
v -1104 -240 0
v -1104 -224 0
v -1088 -224 0
v -1184 -240 0
v -1200 -240 0
v -1200 -224 0
v -1184 -224 0
v -1200 -240 0
v -1216 -240 0
v -1216 -224 0
v -1200 -224 0
v -1216 -240 0
v -1232 -240 0
v -1232 -224 0
v -1216 -224 0
v -1232 -240 0
v -1248 -240 0
v -1248 -224 0
v -1232 -224 0
v -1248 -240 0
v -1264 -240 0
v -1264 -224 0
v -1248 -224 0
v -1328 -240 0
v -1344 -240 0
v -1344 -224 0
v -1328 -224 0
v -1344 -240 0
v -1360 -240 0
v -1360 -224 0
v -1344 -224 0
v -1360 -240 0
v -1376 -240 0
v -1376 -224 0
v -1360 -224 0
v -1376 -240 0
v -1392 -240 0
v -1392 -224 0
v -1376 -224 0
v -1392 -240 0
v -1408 -240 0
v -1408 -224 0
v -1392 -224 0
v -1472 -240 0
v -1488 -240 0
v -1488 -224 0
v -1472 -224 0
v -1488 -240 0
v -1504 -240 0
v -1504 -224 0
v -1488 -224 0
v -1504 -240 0
v -1520 -240 0
v -1520 -224 0
v -1504 -224 0
v -1520 -240 0
v -1536 -240 0
v -1536 -224 0
v -1520 -224 0
v -1536 -240 0
v -1552 -240 0
v -1552 -224 0
v -1536 -224 0
v -1616 -240 0
v -1632 -240 0
v -1632 -224 0
v -1616 -224 0
v -1040 -256 0
v -1056 -256 0
v -1056 -240 0
v -1040 -240 0
v -1056 -256 0
v -1072 -256 0
v -1072 -240 0
v -1056 -240 0
v -1072 -256 0
v -1088 -256 0
v -1088 -240 0
v -1072 -240 0
v -1088 -256 0
v -1104 -256 0
v -1104 -240 0
v -1088 -240 0
v -1184 -256 0
v -1200 -256 0
v -1200 -240 0
v -1184 -240 0
v -1200 -256 0
v -1216 -256 0
v -1216 -240 0
v -1200 -240 0
v -1216 -256 0
v -1232 -256 0
v -1232 -240 0
v -1216 -240 0
v -1232 -256 0
v -1248 -256 0
v -1248 -240 0
v -1232 -240 0
v -1248 -256 0
v -1264 -256 0
v -1264 -240 0
v -1248 -240 0
v -1328 -256 0
v -1344 -256 0
v -1344 -240 0
v -1328 -240 0
v -1344 -256 0
v -1360 -256 0
v -1360 -240 0
v -1344 -240 0
v -1360 -256 0
v -1376 -256 0
v -1376 -240 0
v -1360 -240 0
v -1376 -256 0
v -1392 -256 0
v -1392 -240 0
v -1376 -240 0
v -1392 -256 0
v -1408 -256 0
v -1408 -240 0
v -1392 -240 0
v -1472 -256 0
v -1488 -256 0
v -1488 -240 0
v -1472 -240 0
v -1488 -256 0
v -1504 -256 0
v -1504 -240 0
v -1488 -240 0
v -1504 -256 0
v -1520 -256 0
v -1520 -240 0
v -1504 -240 0
v -1520 -256 0
v -1536 -256 0
v -1536 -240 0
v -1520 -240 0
v -1536 -256 0
v -1552 -256 0
v -1552 -240 0
v -1536 -240 0
v -1616 -256 0
v -1632 -256 0
v -1632 -240 0
v -1616 -240 0
v -1040 -272 0
v -1056 -272 0
v -1056 -256 0
v -1040 -256 0
v -1056 -272 0
v -1072 -272 0
v -1072 -256 0
v -1056 -256 0
v -1072 -272 0
v -1088 -272 0
v -1088 -256 0
v -1072 -256 0
v -1088 -272 0
v -1104 -272 0
v -1104 -256 0
v -1088 -256 0
v -1184 -272 0
v -1200 -272 0
v -1200 -256 0
v -1184 -256 0
v -1200 -272 0
v -1216 -272 0
v -1216 -256 0
v -1200 -256 0
v -1216 -272 0
v -1232 -272 0
v -1232 -256 0
v -1216 -256 0
v -1232 -272 0
v -1248 -272 0
v -1248 -256 0
v -1232 -256 0
v -1248 -272 0
v -1264 -272 0
v -1264 -256 0
v -1248 -256 0
v -1328 -272 0
v -1344 -272 0
v -1344 -256 0
v -1328 -256 0
v -1344 -272 0
v -1360 -272 0
v -1360 -256 0
v -1344 -256 0
v -1360 -272 0
v -1376 -272 0
v -1376 -256 0
v -1360 -256 0
v -1376 -272 0
v -1392 -272 0
v -1392 -256 0
v -1376 -256 0
v -1392 -272 0
v -1408 -272 0
v -1408 -256 0
v -1392 -256 0
v -1472 -272 0
v -1488 -272 0
v -1488 -256 0
v -1472 -256 0
v -1488 -272 0
v -1504 -272 0
v -1504 -256 0
v -1488 -256 0
v -1504 -272 0
v -1520 -272 0
v -1520 -256 0
v -1504 -256 0
v -1520 -272 0
v -1536 -272 0
v -1536 -256 0
v -1520 -256 0
v -1536 -272 0
v -1552 -272 0
v -1552 -256 0
v -1536 -256 0
v -1616 -272 0
v -1632 -272 0
v -1632 -256 0
v -1616 -256 0
v -1040 -288 0
v -1056 -288 0
v -1056 -272 0
v -1040 -272 0
v -1056 -288 0
v -1072 -288 0
v -1072 -272 0
v -1056 -272 0
v -1072 -288 0
v -1088 -288 0
v -1088 -272 0
v -1072 -272 0
v -1088 -288 0
v -1104 -288 0
v -1104 -272 0
v -1088 -272 0
v -1184 -288 0
v -1200 -288 0
v -1200 -272 0
v -1184 -272 0
v -1200 -288 0
v -1216 -288 0
v -1216 -272 0
v -1200 -272 0
v -1216 -288 0
v -1232 -288 0
v -1232 -272 0
v -1216 -272 0
v -1232 -288 0
v -1248 -288 0
v -1248 -272 0
v -1232 -272 0
v -1248 -288 0
v -1264 -288 0
v -1264 -272 0
v -1248 -272 0
v -1328 -288 0
v -1344 -288 0
v -1344 -272 0
v -1328 -272 0
v -1344 -288 0
v -1360 -288 0
v -1360 -272 0
v -1344 -272 0
v -1360 -288 0
v -1376 -288 0
v -1376 -272 0
v -1360 -272 0
v -1376 -288 0
v -1392 -288 0
v -1392 -272 0
v -1376 -272 0
v -1392 -288 0
v -1408 -288 0
v -1408 -272 0
v -1392 -272 0
v -1472 -288 0
v -1488 -288 0
v -1488 -272 0
v -1472 -272 0
v -1488 -288 0
v -1504 -288 0
v -1504 -272 0
v -1488 -272 0
v -1504 -288 0
v -1520 -288 0
v -1520 -272 0
v -1504 -272 0
v -1520 -288 0
v -1536 -288 0
v -1536 -272 0
v -1520 -272 0
v -1536 -288 0
v -1552 -288 0
v -1552 -272 0
v -1536 -272 0
v -1616 -288 0
v -1632 -288 0
v -1632 -272 0
v -1616 -272 0
v -1040 -304 0
v -1056 -304 0
v -1056 -288 0
v -1040 -288 0
v -1056 -304 0
v -1072 -304 0
v -1072 -288 0
v -1056 -288 0
v -1072 -304 0
v -1088 -304 0
v -1088 -288 0
v -1072 -288 0
v -1088 -304 0
v -1104 -304 0
v -1104 -288 0
v -1088 -288 0
v -1184 -304 0
v -1200 -304 0
v -1200 -288 0
v -1184 -288 0
v -1200 -304 0
v -1216 -304 0
v -1216 -288 0
v -1200 -288 0
v -1216 -304 0
v -1232 -304 0
v -1232 -288 0
v -1216 -288 0
v -1232 -304 0
v -1248 -304 0
v -1248 -288 0
v -1232 -288 0
v -1248 -304 0
v -1264 -304 0
v -1264 -288 0
v -1248 -288 0
v -1328 -304 0
v -1344 -304 0
v -1344 -288 0
v -1328 -288 0
v -1344 -304 0
v -1360 -304 0
v -1360 -288 0
v -1344 -288 0
v -1360 -304 0
v -1376 -304 0
v -1376 -288 0
v -1360 -288 0
v -1376 -304 0
v -1392 -304 0
v -1392 -288 0
v -1376 -288 0
v -1392 -304 0
v -1408 -304 0
v -1408 -288 0
v -1392 -288 0
v -1472 -304 0
v -1488 -304 0
v -1488 -288 0
v -1472 -288 0
v -1488 -304 0
v -1504 -304 0
v -1504 -288 0
v -1488 -288 0
v -1504 -304 0
v -1520 -304 0
v -1520 -288 0
v -1504 -288 0
v -1520 -304 0
v -1536 -304 0
v -1536 -288 0
v -1520 -288 0
v -1536 -304 0
v -1552 -304 0
v -1552 -288 0
v -1536 -288 0
v -1616 -304 0
v -1632 -304 0
v -1632 -288 0
v -1616 -288 0
v -1024 -320 0
v -1040 -320 0
v -1040 -304 0
v -1024 -304 0
v -992 -336 0
v -1008 -336 0
v -1008 -320 0
v -992 -320 0
v -1008 -336 0
v -1024 -336 0
v -1024 -320 0
v -1008 -320 0
v -1024 -336 0
v -1040 -336 0
v -1040 -320 0
v -1024 -320 0
v -960 -352 0
v -976 -352 0
v -976 -336 0
v -960 -336 0
v -976 -352 0
v -992 -352 0
v -992 -336 0
v -976 -336 0
v -992 -352 0
v -1008 -352 0
v -1008 -336 0
v -992 -336 0
v -960 -368 0
v -976 -368 0
v -976 -352 0
v -960 -352 0

# Texture cooridinates (Count = 62)
vt 0.0625 0.6875
vt 0.125 0.6875
vt 0.125 0.75
vt 0.0625 0.75
vt 0.1875 0.6875
vt 0.1875 0.75
vt 0.25 0.6875
vt 0.25 0.75
vt 0.3125 0.6875
vt 0.3125 0.75
vt 0.375 0.6875
vt 0.375 0.75
vt 0.0625 0.625
vt 0.125 0.625
vt 0.1875 0.625
vt 0.25 0.625
vt 0.3125 0.625
vt 0.375 0.625
vt 0.0625 0.5625
vt 0.125 0.5625
vt 0.1875 0.5625
vt 0.25 0.5625
vt 0.3125 0.5625
vt 0.375 0.5625
vt 0.0625 0.5
vt 0.125 0.5
vt 0.1875 0.5
vt 0.25 0.5
vt 0.3125 0.5
vt 0.375 0.5
vt 0.0625 0.4375
vt 0.125 0.4375
vt 0.1875 0.4375
vt 0.25 0.4375
vt 0.3125 0.4375
vt 0.375 0.4375
vt 0.0625 0.375
vt 0.125 0.375
vt 0.1875 0.375
vt 0.25 0.375
vt 0.3125 0.375
vt 0.375 0.375
vt 0.0625 0.3125
vt 0.125 0.3125
vt 0.1875 0.3125
vt 0.25 0.3125
vt 0.3125 0.3125
vt 0.375 0.3125
vt 0.4375 0.9375
vt 0.5 0.9375
vt 0.5 1
vt 0.4375 1
vt 0.5625 0.9375
vt 0.5625 1
vt 0.5 0.625
vt 0.5625 0.625
vt 0.5625 0.6875
vt 0.5 0.6875
vt 0.4375 0.8125
vt 0.5 0.8125
vt 0.5 0.875
vt 0.4375 0.875

# Normal
vn 0 0 -1

# Mesh description
g map2_mesh_0004

# Faces
f 1/1/1 2/2/1 3/3/1 4/4/1
f 5/2/1 6/5/1 7/6/1 8/3/1
f 9/5/1 10/7/1 11/8/1 12/6/1
f 13/7/1 14/9/1 15/10/1 16/8/1
f 17/9/1 18/11/1 19/12/1 20/10/1
f 21/1/1 22/2/1 23/3/1 24/4/1
f 25/2/1 26/5/1 27/6/1 28/3/1
f 29/5/1 30/7/1 31/8/1 32/6/1
f 33/7/1 34/9/1 35/10/1 36/8/1
f 37/9/1 38/11/1 39/12/1 40/10/1
f 41/1/1 42/2/1 43/3/1 44/4/1
f 45/2/1 46/5/1 47/6/1 48/3/1
f 49/5/1 50/7/1 51/8/1 52/6/1
f 53/7/1 54/9/1 55/10/1 56/8/1
f 57/9/1 58/11/1 59/12/1 60/10/1
f 61/1/1 62/2/1 63/3/1 64/4/1
f 65/2/1 66/5/1 67/6/1 68/3/1
f 69/5/1 70/7/1 71/8/1 72/6/1
f 73/7/1 74/9/1 75/10/1 76/8/1
f 77/9/1 78/11/1 79/12/1 80/10/1
f 81/13/1 82/14/1 83/2/1 84/1/1
f 85/14/1 86/15/1 87/5/1 88/2/1
f 89/15/1 90/16/1 91/7/1 92/5/1
f 93/16/1 94/17/1 95/9/1 96/7/1
f 97/13/1 98/14/1 99/2/1 100/1/1
f 101/14/1 102/15/1 103/5/1 104/2/1
f 105/15/1 106/16/1 107/7/1 108/5/1
f 109/16/1 110/17/1 111/9/1 112/7/1
f 113/17/1 114/18/1 115/11/1 116/9/1
f 117/13/1 118/14/1 119/2/1 120/1/1
f 121/14/1 122/15/1 123/5/1 124/2/1
f 125/15/1 126/16/1 127/7/1 128/5/1
f 129/16/1 130/17/1 131/9/1 132/7/1
f 133/17/1 134/18/1 135/11/1 136/9/1
f 137/13/1 138/14/1 139/2/1 140/1/1
f 141/14/1 142/15/1 143/5/1 144/2/1
f 145/15/1 146/16/1 147/7/1 148/5/1
f 149/16/1 150/17/1 151/9/1 152/7/1
f 153/17/1 154/18/1 155/11/1 156/9/1
f 157/13/1 158/14/1 159/2/1 160/1/1
f 161/19/1 162/20/1 163/14/1 164/13/1
f 165/20/1 166/21/1 167/15/1 168/14/1
f 169/21/1 170/22/1 171/16/1 172/15/1
f 173/22/1 174/23/1 175/17/1 176/16/1
f 177/19/1 178/20/1 179/14/1 180/13/1
f 181/20/1 182/21/1 183/15/1 184/14/1
f 185/21/1 186/22/1 187/16/1 188/15/1
f 189/22/1 190/23/1 191/17/1 192/16/1
f 193/23/1 194/24/1 195/18/1 196/17/1
f 197/19/1 198/20/1 199/14/1 200/13/1
f 201/20/1 202/21/1 203/15/1 204/14/1
f 205/21/1 206/22/1 207/16/1 208/15/1
f 209/22/1 210/23/1 211/17/1 212/16/1
f 213/23/1 214/24/1 215/18/1 216/17/1
f 217/19/1 218/20/1 219/14/1 220/13/1
f 221/20/1 222/21/1 223/15/1 224/14/1
f 225/21/1 226/22/1 227/16/1 228/15/1
f 229/22/1 230/23/1 231/17/1 232/16/1
f 233/23/1 234/24/1 235/18/1 236/17/1
f 237/19/1 238/20/1 239/14/1 240/13/1
f 241/25/1 242/26/1 243/20/1 244/19/1
f 245/26/1 246/27/1 247/21/1 248/20/1
f 249/27/1 250/28/1 251/22/1 252/21/1
f 253/28/1 254/29/1 255/23/1 256/22/1
f 257/25/1 258/26/1 259/20/1 260/19/1
f 261/26/1 262/27/1 263/21/1 264/20/1
f 265/27/1 266/28/1 267/22/1 268/21/1
f 269/28/1 270/29/1 271/23/1 272/22/1
f 273/29/1 274/30/1 275/24/1 276/23/1
f 277/25/1 278/26/1 279/20/1 280/19/1
f 281/26/1 282/27/1 283/21/1 284/20/1
f 285/27/1 286/28/1 287/22/1 288/21/1
f 289/28/1 290/29/1 291/23/1 292/22/1
f 293/29/1 294/30/1 295/24/1 296/23/1
f 297/25/1 298/26/1 299/20/1 300/19/1
f 301/26/1 302/27/1 303/21/1 304/20/1
f 305/27/1 306/28/1 307/22/1 308/21/1
f 309/28/1 310/29/1 311/23/1 312/22/1
f 313/29/1 314/30/1 315/24/1 316/23/1
f 317/25/1 318/26/1 319/20/1 320/19/1
f 321/31/1 322/32/1 323/26/1 324/25/1
f 325/32/1 326/33/1 327/27/1 328/26/1
f 329/33/1 330/34/1 331/28/1 332/27/1
f 333/34/1 334/35/1 335/29/1 336/28/1
f 337/31/1 338/32/1 339/26/1 340/25/1
f 341/32/1 342/33/1 343/27/1 344/26/1
f 345/33/1 346/34/1 347/28/1 348/27/1
f 349/34/1 350/35/1 351/29/1 352/28/1
f 353/35/1 354/36/1 355/30/1 356/29/1
f 357/31/1 358/32/1 359/26/1 360/25/1
f 361/32/1 362/33/1 363/27/1 364/26/1
f 365/33/1 366/34/1 367/28/1 368/27/1
f 369/34/1 370/35/1 371/29/1 372/28/1
f 373/35/1 374/36/1 375/30/1 376/29/1
f 377/31/1 378/32/1 379/26/1 380/25/1
f 381/32/1 382/33/1 383/27/1 384/26/1
f 385/33/1 386/34/1 387/28/1 388/27/1
f 389/34/1 390/35/1 391/29/1 392/28/1
f 393/35/1 394/36/1 395/30/1 396/29/1
f 397/31/1 398/32/1 399/26/1 400/25/1
f 401/37/1 402/38/1 403/32/1 404/31/1
f 405/38/1 406/39/1 407/33/1 408/32/1
f 409/39/1 410/40/1 411/34/1 412/33/1
f 413/40/1 414/41/1 415/35/1 416/34/1
f 417/37/1 418/38/1 419/32/1 420/31/1
f 421/38/1 422/39/1 423/33/1 424/32/1
f 425/39/1 426/40/1 427/34/1 428/33/1
f 429/40/1 430/41/1 431/35/1 432/34/1
f 433/41/1 434/42/1 435/36/1 436/35/1
f 437/37/1 438/38/1 439/32/1 440/31/1
f 441/38/1 442/39/1 443/33/1 444/32/1
f 445/39/1 446/40/1 447/34/1 448/33/1
f 449/40/1 450/41/1 451/35/1 452/34/1
f 453/41/1 454/42/1 455/36/1 456/35/1
f 457/37/1 458/38/1 459/32/1 460/31/1
f 461/38/1 462/39/1 463/33/1 464/32/1
f 465/39/1 466/40/1 467/34/1 468/33/1
f 469/40/1 470/41/1 471/35/1 472/34/1
f 473/41/1 474/42/1 475/36/1 476/35/1
f 477/37/1 478/38/1 479/32/1 480/31/1
f 481/43/1 482/44/1 483/38/1 484/37/1
f 485/44/1 486/45/1 487/39/1 488/38/1
f 489/45/1 490/46/1 491/40/1 492/39/1
f 493/46/1 494/47/1 495/41/1 496/40/1
f 497/43/1 498/44/1 499/38/1 500/37/1
f 501/44/1 502/45/1 503/39/1 504/38/1
f 505/45/1 506/46/1 507/40/1 508/39/1
f 509/46/1 510/47/1 511/41/1 512/40/1
f 513/47/1 514/48/1 515/42/1 516/41/1
f 517/43/1 518/44/1 519/38/1 520/37/1
f 521/44/1 522/45/1 523/39/1 524/38/1
f 525/45/1 526/46/1 527/40/1 528/39/1
f 529/46/1 530/47/1 531/41/1 532/40/1
f 533/47/1 534/48/1 535/42/1 536/41/1
f 537/43/1 538/44/1 539/38/1 540/37/1
f 541/44/1 542/45/1 543/39/1 544/38/1
f 545/45/1 546/46/1 547/40/1 548/39/1
f 549/46/1 550/47/1 551/41/1 552/40/1
f 553/47/1 554/48/1 555/42/1 556/41/1
f 557/43/1 558/44/1 559/38/1 560/37/1
f 561/49/1 562/50/1 563/51/1 564/52/1
f 565/49/1 566/50/1 567/51/1 568/52/1
f 569/50/1 570/53/1 571/54/1 572/51/1
f 573/55/1 574/56/1 575/57/1 576/58/1
f 577/49/1 578/50/1 579/51/1 580/52/1
f 581/50/1 582/53/1 583/54/1 584/51/1
f 585/55/1 586/56/1 587/57/1 588/58/1
f 589/59/1 590/60/1 591/61/1 592/62/1

